<svg width="34" height="34" viewBox="0 0 34 34" fill="none" xmlns="http://www.w3.org/2000/svg">
<path d="M19.1253 11.5924V6.82392C19.1253 6.48675 19.2358 6.20956 19.4568 5.99234C19.6778 5.77512 19.9517 5.6665 20.2785 5.6665H27.1918C27.5195 5.6665 27.7915 5.77512 28.0078 5.99234C28.2241 6.20956 28.3327 6.48675 28.3337 6.82392V11.5924C28.3337 11.9305 28.2232 12.2077 28.0022 12.424C27.7812 12.6412 27.5073 12.7498 27.1805 12.7498H20.2672C19.9404 12.7498 19.6684 12.6412 19.4512 12.424C19.2339 12.2068 19.1253 11.9296 19.1253 11.5924ZM5.66699 15.8665V6.79984C5.66699 6.47873 5.77749 6.20956 5.99849 5.99234C6.21949 5.77512 6.49338 5.6665 6.82016 5.6665H13.7335C14.0612 5.6665 14.3332 5.77512 14.5495 5.99234C14.7658 6.20956 14.8744 6.47873 14.8753 6.79984V15.8665C14.8753 16.1876 14.7648 16.4568 14.5438 16.674C14.3228 16.8912 14.0489 16.9998 13.7222 16.9998H6.80883C6.48205 16.9998 6.21005 16.8912 5.99283 16.674C5.7756 16.4568 5.66699 16.1876 5.66699 15.8665ZM19.1253 27.1998V18.1332C19.1253 17.8121 19.2358 17.5429 19.4568 17.3257C19.6778 17.1084 19.9517 16.9998 20.2785 16.9998H27.1918C27.5195 16.9998 27.7915 17.1084 28.0078 17.3257C28.2241 17.5429 28.3327 17.8121 28.3337 18.1332V27.1998C28.3337 27.5209 28.2232 27.7901 28.0022 28.0073C27.7812 28.2246 27.5073 28.3332 27.1805 28.3332H20.2672C19.9404 28.3332 19.6684 28.2246 19.4512 28.0073C19.2339 27.7901 19.1253 27.5209 19.1253 27.1998ZM5.66699 27.1758V22.4073C5.66699 22.0701 5.77749 21.7929 5.99849 21.5757C6.21949 21.3584 6.49338 21.2498 6.82016 21.2498H13.7335C14.0612 21.2498 14.3332 21.3584 14.5495 21.5757C14.7658 21.7929 14.8744 22.0701 14.8753 22.4073V27.1758C14.8753 27.5139 14.7648 27.7911 14.5438 28.0073C14.3228 28.2246 14.0489 28.3332 13.7222 28.3332H6.80883C6.48205 28.3332 6.21005 28.2246 5.99283 28.0073C5.7756 27.7901 5.66699 27.5129 5.66699 27.1758ZM7.08366 15.5832H13.4587V7.08317H7.08366V15.5832ZM20.542 26.9165H26.917V18.4165H20.542V26.9165ZM20.542 11.3332H26.917V7.08317H20.542V11.3332ZM7.08366 26.9165H13.4587V22.6665H7.08366V26.9165Z" fill="black"/>
</svg>
