<svg width="24" height="24" viewBox="0 0 24 24" fill="none" xmlns="http://www.w3.org/2000/svg">
<path d="M12.0001 4.50021C11.3481 4.50021 10.7921 4.91621 10.5851 5.50021C10.5534 5.59458 10.5033 5.6817 10.4377 5.7565C10.372 5.83131 10.2922 5.8923 10.2027 5.93592C10.1132 5.97954 10.016 6.00492 9.91664 6.01058C9.81727 6.01625 9.71778 6.00207 9.62394 5.96889C9.53011 5.93571 9.44382 5.88419 9.3701 5.81733C9.29638 5.75046 9.23671 5.66959 9.19456 5.57943C9.15241 5.48927 9.12863 5.39163 9.12459 5.29218C9.12056 5.19274 9.13636 5.09349 9.17107 5.00021C9.3279 4.55677 9.5868 4.15642 9.92687 3.83148C10.2669 3.50653 10.6787 3.2661 11.1288 3.1296C11.5789 2.9931 12.0548 2.96434 12.5181 3.04566C12.9813 3.12698 13.419 3.31609 13.7957 3.59773C14.1724 3.87936 14.4777 4.24563 14.6867 4.66697C14.8958 5.0883 15.0029 5.55289 14.9993 6.02323C14.9958 6.49358 14.8816 6.95649 14.6662 7.37461C14.4508 7.79272 14.14 8.15432 13.7591 8.43021C13.4581 8.64921 13.1911 8.86821 13.0021 9.09721C12.8161 9.32321 12.7501 9.50421 12.7501 9.66021C12.7502 9.77909 12.7824 9.89573 12.8433 9.99782C12.9042 10.0999 12.9915 10.1837 13.0961 10.2402L20.7031 14.3522C21.1869 14.614 21.5697 15.0297 21.7907 15.5335C22.0118 16.0373 22.0586 16.6004 21.9236 17.1338C21.7887 17.6672 21.4797 18.1403 21.0457 18.4783C20.6116 18.8164 20.0772 19 19.5271 19.0002H4.47307C3.92291 19 3.38853 18.8164 2.95447 18.4783C2.52041 18.1403 2.21147 17.6672 2.07652 17.1338C1.94158 16.6004 1.98834 16.0373 2.2094 15.5335C2.43046 15.0297 2.81321 14.614 3.29707 14.3522L9.39707 11.0542C9.48375 11.0074 9.57879 10.9781 9.67678 10.968C9.77477 10.9579 9.87379 10.9673 9.96818 10.9954C10.0626 11.0236 10.1505 11.0701 10.2269 11.1323C10.3033 11.1944 10.3668 11.271 10.4136 11.3577C10.4604 11.4444 10.4897 11.5394 10.4998 11.6374C10.5098 11.7354 10.5005 11.8344 10.4723 11.9288C10.4442 12.0232 10.3977 12.1111 10.3355 12.1875C10.2733 12.264 10.1967 12.3274 10.1101 12.3742L4.01007 15.6712C3.81955 15.7742 3.66881 15.9378 3.58175 16.1361C3.49469 16.3344 3.47627 16.556 3.52942 16.766C3.58257 16.9759 3.70424 17.1622 3.87517 17.2951C4.04609 17.4281 4.2565 17.5003 4.47307 17.5002H19.5271C19.7436 17.5003 19.9541 17.4281 20.125 17.2951C20.2959 17.1622 20.4176 16.9759 20.4707 16.766C20.5239 16.556 20.5055 16.3344 20.4184 16.1361C20.3313 15.9378 20.1806 15.7742 19.9901 15.6712L12.3831 11.5592C12.0405 11.3741 11.7543 11.0997 11.5549 10.7653C11.3554 10.4308 11.2501 10.0486 11.2501 9.65921C11.2501 9.03621 11.5281 8.52821 11.8441 8.14421C12.1581 7.76421 12.5511 7.45421 12.8791 7.21621C13.1362 7.03049 13.3279 6.76804 13.4265 6.46657C13.5251 6.1651 13.5256 5.84012 13.4279 5.53834C13.3303 5.23656 13.1394 4.97351 12.8829 4.78698C12.6263 4.60046 12.3173 4.50006 12.0001 4.50021Z" fill="black"/>
</svg>
