<svg width="35" height="40" viewBox="0 0 35 40" fill="none" xmlns="http://www.w3.org/2000/svg">
<path d="M24.5576 24.7716H23.0602L22.5294 24.1658C24.387 21.608 25.5053 18.2873 25.5053 14.6749C25.5053 6.62001 19.9895 0.0908203 13.1848 0.0908203C6.38006 0.0908203 0.864258 6.62001 0.864258 14.6749C0.864258 22.7298 6.38006 29.259 13.1848 29.259C16.2365 29.259 19.0418 27.9352 21.2026 25.7364L21.7144 26.3646V28.1372L31.1917 39.3332L34.0159 35.9901L24.5576 24.7716ZM13.1848 24.7716C8.46507 24.7716 4.65519 20.2617 4.65519 14.6749C4.65519 9.08808 8.46507 4.57823 13.1848 4.57823C17.9045 4.57823 21.7144 9.08808 21.7144 14.6749C21.7144 20.2617 17.9045 24.7716 13.1848 24.7716Z" fill="white"/>
</svg>
