<svg width="78" height="78" viewBox="0 0 78 78" fill="none" xmlns="http://www.w3.org/2000/svg">
<g clip-path="url(#clip0_152_886)">
<path d="M50.537 35.75L59.507 19.5H20.0195L27.722 35.75H50.537Z" fill="#CB3123"/>
<path d="M50.5375 42.25C52.975 42.25 55.12 40.9175 56.225 38.9025L67.86 17.81C69.0625 15.665 67.5025 13 65.0325 13H16.9325L13.8775 6.5H3.25V13H9.75L21.45 37.6675L17.0625 45.5975C14.69 49.9525 17.81 55.25 22.75 55.25H61.75V48.75H22.75L26.325 42.25H50.5375ZM20.02 19.5H59.5075L50.5375 35.75H27.7225L20.02 19.5ZM22.75 58.5C19.175 58.5 16.2825 61.425 16.2825 65C16.2825 68.575 19.175 71.5 22.75 71.5C26.325 71.5 29.25 68.575 29.25 65C29.25 61.425 26.325 58.5 22.75 58.5ZM55.25 58.5C51.675 58.5 48.7825 61.425 48.7825 65C48.7825 68.575 51.675 71.5 55.25 71.5C58.825 71.5 61.75 68.575 61.75 65C61.75 61.425 58.825 58.5 55.25 58.5Z" fill="black"/>
</g>
<defs>
<clipPath id="clip0_152_886">
<rect width="78" height="78" fill="white"/>
</clipPath>
</defs>
</svg>
