<svg width="39" height="36" viewBox="0 0 39 36" fill="none" xmlns="http://www.w3.org/2000/svg">
<path d="M38.1639 8.5425C37.8249 6.7087 36.5668 6.13178 35.143 6.13178C33.6363 6.13178 31.2859 3.38109 30.1106 2.0006C29.523 1.32065 28.2649 0.857056 27.4287 0.857056H12.0001C11.1639 0.857056 9.90583 1.32065 9.31822 2.0006C8.143 3.49442 5.79255 6.13178 4.28585 6.13178C2.86203 6.13178 1.6868 6.7087 1.26493 8.5425C0.51158 12.4367 0.428711 21.379 0.428711 24.5933C0.428711 27.2307 1.85254 29.1778 2.35728 29.868C3.36677 31.2485 5.0392 32.2788 10.0716 32.5054C11.6611 34.3392 13.8458 35.1428 19.7144 35.1428C25.583 35.1428 27.7677 34.3392 29.3573 32.5054C34.3068 32.2788 35.9792 31.3619 37.0716 29.868C37.5763 29.1778 39.0001 27.2307 39.0001 24.5933C39.0001 21.4924 38.9173 12.4367 38.1639 8.5425ZM10.0716 16.6812H8.143V19.3186H6.21443V16.6812H4.28585V14.0439H6.21443V11.4065H8.143V14.0439H10.0716V16.6812ZM27.4287 9.74785V24.5933H12.0001V8.76914H27.4287V9.74785ZM31.2859 21.956C30.2236 21.956 29.3573 20.7712 29.3573 19.3186C29.3573 17.866 30.2236 16.6812 31.2859 16.6812C32.3481 16.6812 33.2144 17.866 33.2144 19.3186C33.2144 20.7712 32.3481 21.956 31.2859 21.956ZM35.143 16.6812C34.0808 16.6812 33.2144 15.4965 33.2144 14.0439C33.2144 12.5913 34.0808 11.4065 35.143 11.4065C36.2052 11.4065 37.0716 12.5913 37.0716 14.0439C37.0716 15.4965 36.2052 16.6812 35.143 16.6812Z" fill="white"/>
</svg>
