<svg width="37" height="37" viewBox="0 0 37 37" fill="none" xmlns="http://www.w3.org/2000/svg">
<path d="M11.334 36.8333C10.3257 36.8333 9.46276 36.4746 8.74532 35.7571C8.02665 35.0385 7.66732 34.175 7.66732 33.1666C7.66732 32.1583 8.02665 31.2948 8.74532 30.5761C9.46276 29.8587 10.3257 29.5 11.334 29.5C12.3423 29.5 13.2052 29.8587 13.9227 30.5761C14.6413 31.2948 15.0007 32.1583 15.0007 33.1666C15.0007 34.175 14.6413 35.0385 13.9227 35.7571C13.2052 36.4746 12.3423 36.8333 11.334 36.8333ZM29.6673 36.8333C28.659 36.8333 27.7961 36.4746 27.0787 35.7571C26.36 35.0385 26.0007 34.175 26.0007 33.1666C26.0007 32.1583 26.36 31.2948 27.0787 30.5761C27.7961 29.8587 28.659 29.5 29.6673 29.5C30.6757 29.5 31.5392 29.8587 32.2578 30.5761C32.9753 31.2948 33.334 32.1583 33.334 33.1666C33.334 34.175 32.9753 35.0385 32.2578 35.7571C31.5392 36.4746 30.6757 36.8333 29.6673 36.8333ZM11.334 27.6666C9.95898 27.6666 8.9201 27.0628 8.21732 25.8553C7.51454 24.649 7.48398 23.45 8.12565 22.2583L10.6007 17.7666L4.00065 3.83329H2.12148C1.60204 3.83329 1.17426 3.65729 0.838151 3.30529C0.50204 2.95451 0.333984 2.5194 0.333984 1.99996C0.333984 1.48051 0.509984 1.04479 0.861984 0.692793C1.21276 0.342015 1.64787 0.166626 2.16732 0.166626H5.14648C5.4826 0.166626 5.80343 0.258293 6.10898 0.441626C6.41454 0.624959 6.64371 0.884682 6.79648 1.22079L8.03398 3.83329H35.0757C35.9007 3.83329 36.4659 4.13885 36.7715 4.74996C37.077 5.36107 37.0618 6.00274 36.7257 6.67496L30.2173 18.4083C29.8812 19.0194 29.4382 19.493 28.8882 19.8291C28.3382 20.1652 27.7118 20.3333 27.009 20.3333H13.3507L11.334 24H31.5465C32.0659 24 32.4937 24.1753 32.8298 24.5261C33.1659 24.8781 33.334 25.3138 33.334 25.8333C33.334 26.3527 33.158 26.7878 32.806 27.1386C32.4552 27.4906 32.0201 27.6666 31.5007 27.6666H11.334Z" fill="white"/>
</svg>
